<svg width="121" height="120" viewBox="0 0 121 120" fill="none" xmlns="http://www.w3.org/2000/svg">
<path d="M60.4969 115.374C55.3729 113.145 14.4079 92.9518 14.0029 19.1008L60.4999 4.57178L106.997 19.1008C106.592 92.7568 65.6209 113.124 60.4969 115.374Z" fill="#C6DFFF"/>
<path d="M60.5 6.144L105.488 20.202C104.714 89.748 67.256 110.544 60.494 113.73C53.714 110.562 16.286 89.907 15.512 20.202L60.5 6.144ZM60.5 3L12.5 18C12.5 99.423 60.5 117 60.5 117C60.5 117 108.5 99.204 108.5 18L60.5 3Z" fill="#1B539A"/>
<path d="M53.24 79.5L56.498 57.708L55.565 57.207C52.133 55.362 50 51.834 50 48C50 42.21 54.71 37.5 60.5 37.5C66.29 37.5 71 42.21 71 48C71 51.834 68.867 55.362 65.435 57.207L64.502 57.708L67.76 79.5H53.24Z" fill="#5B88C0"/>
<path d="M60.5 39C65.462 39 69.5 43.038 69.5 48C69.5 51.282 67.67 54.303 64.724 55.887L62.867 56.886L63.179 58.974L66.02 78H54.98L57.821 58.971L58.133 56.883L56.276 55.884C53.33 54.303 51.5 51.282 51.5 48C51.5 43.038 55.538 39 60.5 39ZM60.5 36C53.873 36 48.5 41.373 48.5 48C48.5 52.575 51.089 56.505 54.857 58.53L51.5 81H69.5L66.143 58.53C69.911 56.505 72.5 52.575 72.5 48C72.5 41.373 67.127 36 60.5 36Z" fill="#1B539A"/>
</svg>
