<svg width="32" height="32" viewBox="0 0 32 32" fill="none" xmlns="http://www.w3.org/2000/svg">
<rect width="32" height="32" rx="7.03297" fill="#F7F7F7"/>
<path d="M12.5 18.6667C12.5 19.9553 13.5447 21 14.8333 21H17C18.3807 21 19.5 19.8807 19.5 18.5C19.5 17.1193 18.3807 16 17 16H15C13.6193 16 12.5 14.8807 12.5 13.5C12.5 12.1193 13.6193 11 15 11H17.1667C18.4553 11 19.5 12.0447 19.5 13.3333M16 9.5V11M16 21V22.5M26 16C26 21.5228 21.5228 26 16 26C10.4772 26 6 21.5228 6 16C6 10.4772 10.4772 6 16 6C21.5228 6 26 10.4772 26 16Z" stroke="#1B539A" stroke-width="1.5" stroke-linecap="round" stroke-linejoin="round"/>
</svg>
