<svg width="32" height="32" viewBox="0 0 32 32" fill="none" xmlns="http://www.w3.org/2000/svg">
<rect width="32" height="32" rx="7.03297" fill="#5865F2"/>
<g clip-path="url(#clip0_947_969)">
<path d="M31 1H2V30H31V1Z" fill="#5865F2"/>
<path fill-rule="evenodd" clip-rule="evenodd" d="M18.673 9.31002C18.8197 8.97867 18.9819 8.65366 19.1592 8.33501C19.1951 8.27123 19.2287 8.25918 19.307 8.27344C20.5646 8.53129 21.8132 8.91722 23.0604 9.38586C23.1309 9.41127 23.219 9.46727 23.259 9.53429C25.2114 12.4885 26.4726 15.8925 26.0911 20.1582C26.081 20.3184 26.0499 20.3454 25.9367 20.4272C24.5074 21.44 22.9915 22.2455 21.3325 22.7094C21.1633 22.7605 21.1088 22.7198 21.0398 22.6196C20.7049 22.1289 20.4083 21.6254 20.1169 21.12C20.6982 20.8952 21.2492 20.645 21.736 20.3408L21.3483 20.0119C20.2898 20.6634 18.5134 21.091 16.5001 21.091C14.4868 21.091 12.7104 20.6634 11.6519 20.0119L11.2641 20.3408C11.7509 20.6452 12.302 20.8952 12.8833 21.12C12.5919 21.6252 12.2953 22.1287 11.9604 22.6196C11.8913 22.7198 11.8369 22.7605 11.6677 22.7094C10.0087 22.2455 8.49275 21.44 7.06349 20.4272C6.95031 20.3454 6.9192 20.3184 6.90909 20.1582C6.52757 15.8925 7.78881 12.4886 9.74116 9.53429C9.78122 9.46727 9.86924 9.41127 9.93977 9.38586C11.187 8.91722 12.4354 8.53129 13.6932 8.27344C13.7715 8.25931 13.805 8.27136 13.841 8.33501C14.0183 8.65366 14.1805 8.97854 14.3272 9.31002C14.9709 9.19788 15.7116 9.13384 16.5001 9.13384C17.2885 9.13384 18.0294 9.19788 18.673 9.31002ZM13.2805 14.3572C12.3316 14.3572 11.5624 15.2044 11.5624 16.2493C11.5624 17.2942 12.3317 18.1413 13.2805 18.1413C14.2294 18.1413 14.9986 17.2942 14.9986 16.2493C14.9986 15.2044 14.2294 14.3572 13.2805 14.3572ZM19.7196 14.3572C18.7707 14.3572 18.0016 15.2044 18.0016 16.2493C18.0016 17.2942 18.7708 18.1413 19.7196 18.1413C20.6685 18.1413 21.4377 17.2942 21.4377 16.2493C21.4377 15.2044 20.6685 14.3572 19.7196 14.3572Z" fill="white"/>
</g>
<defs>
<clipPath id="clip0_947_969">
<rect x="2" y="1" width="29" height="29" rx="3" fill="white"/>
</clipPath>
</defs>
</svg>
