<svg width="21" height="19" viewBox="0 0 21 19" fill="none" xmlns="http://www.w3.org/2000/svg">
<path d="M10.5 18.0002H19.5M1.5 18.0002H3.17454C3.66372 18.0002 3.90832 18.0002 4.13849 17.945C4.34256 17.896 4.53765 17.8152 4.7166 17.7055C4.91843 17.5818 5.09138 17.4089 5.43729 17.063L18 4.50023C18.8285 3.6718 18.8285 2.32865 18 1.50023C17.1716 0.671799 15.8285 0.6718 15 1.50023L2.43726 14.063C2.09136 14.4089 1.9184 14.5818 1.79472 14.7837C1.68506 14.9626 1.60425 15.1577 1.55526 15.3618C1.5 15.5919 1.5 15.8365 1.5 16.3257V18.0002Z" stroke="#1B539A" stroke-width="1.5" stroke-linecap="round" stroke-linejoin="round"/>
</svg>
