<svg width="25" height="25" viewBox="0 0 25 25" fill="none" xmlns="http://www.w3.org/2000/svg">
<path d="M18.0664 5.00847C17.9864 5.00847 17.9064 4.98847 17.8364 4.94847C15.9164 3.95847 14.2564 3.53847 12.2564 3.53847C10.2864 3.53847 8.40643 4.00847 6.69643 4.94847C6.45643 5.07847 6.15643 4.98847 6.01643 4.74847C5.88643 4.50847 5.97643 4.19847 6.21643 4.06847C8.07643 3.03847 10.1164 2.53847 12.2564 2.53847C14.3964 2.53847 16.2564 3.00847 18.2964 4.03847C18.5464 4.18847 18.6364 4.48847 18.5064 4.72847C18.4164 4.90847 18.2564 5.00847 18.0664 5.00847ZM3.75643 10.2585C3.65643 10.2585 3.55643 10.2285 3.46643 10.1685C3.25643 10.0085 3.18643 9.69847 3.34643 9.46847C4.33643 8.06847 5.59643 6.96847 7.09643 6.19847C10.2564 4.57847 14.2564 4.56847 17.4064 6.18847C18.9064 6.95847 20.1664 8.03847 21.1564 9.43847C21.3164 9.65847 21.2564 9.97847 21.0364 10.1385C20.8064 10.2985 20.4964 10.2485 20.3364 10.0385C19.4364 8.75847 18.2964 7.76847 16.9464 7.07847C14.0764 5.60847 10.4064 5.60847 7.54643 7.08847C6.18643 7.78847 5.04643 8.78847 4.14643 10.0385C4.06643 10.1885 3.91643 10.2585 3.75643 10.2585ZM10.0064 22.3285C9.87643 22.3285 9.75643 22.2785 9.65643 22.1785C8.78643 21.3085 8.31643 20.7485 7.64643 19.5385C6.95643 18.3085 6.59643 16.8085 6.59643 15.1985C6.59643 12.2285 9.13643 9.80847 12.2564 9.80847C15.3764 9.80847 17.9164 12.2285 17.9164 15.1985C17.9164 15.3311 17.8637 15.4583 17.77 15.552C17.6762 15.6458 17.549 15.6985 17.4164 15.6985C17.2838 15.6985 17.1566 15.6458 17.0629 15.552C16.9691 15.4583 16.9164 15.3311 16.9164 15.1985C16.9164 12.7785 14.8264 10.8085 12.2564 10.8085C9.68643 10.8085 7.59643 12.7785 7.59643 15.1985C7.59643 16.6385 7.91643 17.9685 8.52643 19.0385C9.16643 20.1985 9.60643 20.6885 10.3764 21.4685C10.5664 21.6685 10.5664 21.9785 10.3764 22.1785C10.2564 22.2785 10.1364 22.3285 10.0064 22.3285ZM17.1764 20.4785C15.9864 20.4785 14.9364 20.1785 14.0764 19.5885C12.5864 18.5785 11.6964 16.9385 11.6964 15.1985C11.6964 15.0659 11.7491 14.9387 11.8429 14.8449C11.9366 14.7511 12.0638 14.6985 12.1964 14.6985C12.329 14.6985 12.4562 14.7511 12.55 14.8449C12.6437 14.9387 12.6964 15.0659 12.6964 15.1985C12.6964 16.6085 13.4164 17.9385 14.6364 18.7585C15.3464 19.2385 16.1764 19.4685 17.1764 19.4685C17.4164 19.4685 17.8164 19.4385 18.2164 19.3685C18.4864 19.3185 18.7564 19.4985 18.7964 19.7785C18.8464 20.0385 18.6664 20.3085 18.3864 20.3585C17.8164 20.4685 17.3164 20.4785 17.1764 20.4785ZM15.1664 22.5385C15.1264 22.5385 15.0764 22.5385 15.0364 22.5385C13.4464 22.0785 12.4064 21.4885 11.3164 20.4185C9.91643 19.0385 9.14643 17.1785 9.14643 15.1985C9.14643 13.5785 10.5264 12.2585 12.2264 12.2585C13.9264 12.2585 15.3064 13.5785 15.3064 15.1985C15.3064 16.2685 16.2564 17.1385 17.3864 17.1385C18.5364 17.1385 19.4664 16.2685 19.4664 15.1985C19.4664 11.4285 16.2164 8.36847 12.2164 8.36847C9.37643 8.36847 6.75643 9.94847 5.60643 12.3985C5.21643 13.2085 5.01643 14.1585 5.01643 15.1985C5.01643 15.9785 5.08643 17.2085 5.68643 18.8085C5.78643 19.0685 5.65643 19.3585 5.39643 19.4485C5.13643 19.5385 4.84643 19.4085 4.75643 19.1585C4.25643 17.8485 4.02643 16.5385 4.02643 15.1985C4.02643 13.9985 4.25643 12.9085 4.70643 11.9585C6.03643 9.16847 8.98643 7.35847 12.2164 7.35847C16.7564 7.35847 20.4664 10.8685 20.4664 15.1885C20.4664 16.8085 19.0864 18.1285 17.3864 18.1285C15.6864 18.1285 14.3064 16.8085 14.3064 15.1885C14.3064 14.1185 13.3764 13.2485 12.2264 13.2485C11.0764 13.2485 10.1464 14.1185 10.1464 15.1885C10.1464 16.8985 10.8064 18.4985 12.0164 19.6985C12.9664 20.6385 13.8764 21.1585 15.2864 21.5385C15.5564 21.6185 15.7064 21.8985 15.6364 22.1585C15.5864 22.3885 15.3764 22.5385 15.1664 22.5385Z" fill="black"/>
</svg>
