<svg width="32" height="32" viewBox="0 0 32 32" fill="none" xmlns="http://www.w3.org/2000/svg">
<rect width="32" height="32" rx="7.03297" fill="#F7F7F7"/>
<g clip-path="url(#clip0_947_854)">
<path d="M24.8 16.2085C24.8 15.5585 24.7417 14.9335 24.6333 14.3335H16V17.8835H20.9333C20.7167 19.0252 20.0667 19.9918 19.0917 20.6418V22.9502H22.0667C23.8 21.3502 24.8 19.0002 24.8 16.2085Z" fill="#4285F4"/>
<path d="M16.0002 25.1667C18.4752 25.1667 20.5502 24.35 22.0669 22.95L19.0919 20.6417C18.2752 21.1917 17.2336 21.525 16.0002 21.525C13.6169 21.525 11.5919 19.9167 10.8669 17.75H7.81689V20.1167C9.32523 23.1083 12.4169 25.1667 16.0002 25.1667Z" fill="#34A853"/>
<path d="M10.8666 17.7416C10.6833 17.1916 10.5749 16.6083 10.5749 15.9999C10.5749 15.3916 10.6833 14.8083 10.8666 14.2583V11.8916H7.81658C7.19159 13.1249 6.83325 14.5166 6.83325 15.9999C6.83325 17.4833 7.19159 18.8749 7.81658 20.1083L10.1916 18.2583L10.8666 17.7416Z" fill="#FBBC05"/>
<path d="M16.0002 10.4835C17.3502 10.4835 18.5502 10.9502 19.5086 11.8502L22.1336 9.22516C20.5419 7.74183 18.4752 6.8335 16.0002 6.8335C12.4169 6.8335 9.32523 8.89183 7.81689 11.8918L10.8669 14.2585C11.5919 12.0918 13.6169 10.4835 16.0002 10.4835Z" fill="#EA4335"/>
</g>
<defs>
<clipPath id="clip0_947_854">
<rect width="20" height="20" fill="white" transform="translate(6 6)"/>
</clipPath>
</defs>
</svg>
