<svg width="32" height="32" viewBox="0 0 32 32" fill="none" xmlns="http://www.w3.org/2000/svg">
<rect width="32" height="32" rx="8" fill="url(#paint0_radial_947_879)"/>
<path d="M15.9995 8.62269C18.4035 8.62269 18.6857 8.63341 19.6359 8.67627C20.5146 8.71557 20.9897 8.86202 21.3076 8.98704C21.7291 9.15136 22.0291 9.34425 22.3435 9.65859C22.6578 9.97293 22.8543 10.273 23.015 10.6945C23.1365 11.0124 23.2865 11.4875 23.3258 12.3662C23.3687 13.3164 23.3794 13.5986 23.3794 16.0026C23.3794 18.4066 23.3687 18.6888 23.3258 19.6389C23.2865 20.5177 23.14 20.9927 23.015 21.3107C22.8507 21.7322 22.6578 22.0322 22.3435 22.3466C22.0291 22.6609 21.7291 22.8574 21.3076 23.0181C20.9897 23.1396 20.5146 23.2896 19.6359 23.3289C18.6857 23.3717 18.4035 23.3825 15.9995 23.3825C13.5955 23.3825 13.3133 23.3717 12.3631 23.3289C11.4844 23.2896 11.0093 23.1431 10.6914 23.0181C10.2699 22.8538 9.96985 22.6609 9.65551 22.3466C9.34117 22.0322 9.1447 21.7322 8.98396 21.3107C8.86251 20.9927 8.71248 20.5177 8.67319 19.6389C8.63033 18.6888 8.61961 18.4066 8.61961 16.0026C8.61961 13.5986 8.63033 13.3164 8.67319 12.3662C8.71248 11.4875 8.85894 11.0124 8.98396 10.6945C9.14828 10.273 9.34117 9.97293 9.65551 9.65859C9.96985 9.34425 10.2699 9.14779 10.6914 8.98704C11.0093 8.86559 11.4844 8.71557 12.3631 8.67627C13.3133 8.62984 13.5955 8.62269 15.9995 8.62269ZM15.9995 7.00098C13.5562 7.00098 13.249 7.01169 12.2881 7.05456C11.3308 7.09742 10.6771 7.25102 10.1056 7.47249C9.51263 7.7011 9.01254 8.01187 8.51245 8.51196C8.01236 9.01205 7.70516 9.51571 7.47298 10.1051C7.25151 10.6766 7.09791 11.3303 7.05505 12.2912C7.01218 13.2485 7.00146 13.5557 7.00146 15.999C7.00146 18.4423 7.01218 18.7495 7.05505 19.7104C7.09791 20.6677 7.25151 21.3214 7.47298 21.8965C7.70159 22.4894 8.01236 22.9895 8.51245 23.4896C9.01254 23.9897 9.5162 24.2969 10.1056 24.5291C10.6771 24.7506 11.3308 24.9042 12.2917 24.947C13.2526 24.9899 13.5562 25.0006 16.0031 25.0006C18.4499 25.0006 18.7536 24.9899 19.7144 24.947C20.6718 24.9042 21.3254 24.7506 21.9005 24.5291C22.4935 24.3005 22.9936 23.9897 23.4937 23.4896C23.9938 22.9895 24.301 22.4859 24.5332 21.8965C24.7546 21.325 24.9082 20.6713 24.9511 19.7104C24.9939 18.7495 25.0047 18.4459 25.0047 15.999C25.0047 13.5521 24.9939 13.2485 24.9511 12.2876C24.9082 11.3303 24.7546 10.6766 24.5332 10.1015C24.3045 9.50857 23.9938 9.00848 23.4937 8.50839C22.9936 8.0083 22.4899 7.7011 21.9005 7.46892C21.329 7.24745 20.6753 7.09385 19.7144 7.05099C18.75 7.01169 18.4428 7.00098 15.9995 7.00098Z" fill="white"/>
<path d="M15.9999 11.377C13.4495 11.377 11.3777 13.4452 11.3777 15.9992C11.3777 18.5532 13.4495 20.6215 15.9999 20.6215C18.5504 20.6215 20.6222 18.5497 20.6222 15.9992C20.6222 13.4488 18.5504 11.377 15.9999 11.377ZM15.9999 18.9997C14.3425 18.9997 12.9994 17.6566 12.9994 15.9992C12.9994 14.3418 14.3425 12.9987 15.9999 12.9987C17.6574 12.9987 19.0005 14.3418 19.0005 15.9992C19.0005 17.6566 17.6574 18.9997 15.9999 18.9997Z" fill="white"/>
<path d="M20.8039 12.2737C21.3996 12.2737 21.8826 11.7908 21.8826 11.195C21.8826 10.5992 21.3996 10.1162 20.8039 10.1162C20.2081 10.1162 19.7251 10.5992 19.7251 11.195C19.7251 11.7908 20.2081 12.2737 20.8039 12.2737Z" fill="white"/>
<defs>
<radialGradient id="paint0_radial_947_879" cx="0" cy="0" r="1" gradientUnits="userSpaceOnUse" gradientTransform="translate(9.50169 32.0057) rotate(-116.727) scale(39.4738 65.7838)">
<stop stop-color="#F8D447"/>
<stop offset="0.229101" stop-color="#EB513A"/>
<stop offset="0.508032" stop-color="#D636D8"/>
<stop offset="0.77153" stop-color="#6F22F5"/>
<stop offset="0.935271" stop-color="#E030B1"/>
</radialGradient>
</defs>
</svg>
