<svg width="32" height="32" viewBox="0 0 32 32" fill="none" xmlns="http://www.w3.org/2000/svg">
<rect width="32" height="32" rx="7.03297" fill="#007EBB"/>
<g clip-path="url(#clip0_947_926)">
<path fill-rule="evenodd" clip-rule="evenodd" d="M6.27778 28.5H25.7222C27.2563 28.5 28.5 27.2563 28.5 25.7222V6.27778C28.5 4.74365 27.2563 3.5 25.7222 3.5H6.27778C4.74365 3.5 3.5 4.74365 3.5 6.27778V25.7222C3.5 27.2563 4.74365 28.5 6.27778 28.5Z" fill="#007EBB"/>
<path fill-rule="evenodd" clip-rule="evenodd" d="M25.0277 25.0277H21.3179V18.709C21.3179 16.9766 20.6596 16.0085 19.2884 16.0085C17.7967 16.0085 17.0173 17.016 17.0173 18.709V25.0277H13.4421V12.9907H17.0173V14.6121C17.0173 14.6121 18.0923 12.6229 20.6467 12.6229C23.1998 12.6229 25.0277 14.1821 25.0277 17.4066V25.0277ZM9.1768 11.4145C7.95899 11.4145 6.97217 10.42 6.97217 9.19335C6.97217 7.96674 7.95899 6.97217 9.1768 6.97217C10.3946 6.97217 11.3808 7.96674 11.3808 9.19335C11.3808 10.42 10.3946 11.4145 9.1768 11.4145ZM7.33069 25.0277H11.0588V12.9907H7.33069V25.0277Z" fill="white"/>
</g>
<defs>
<clipPath id="clip0_947_926">
<rect width="25" height="25" fill="white" transform="translate(3.5 3.5)"/>
</clipPath>
</defs>
</svg>
