<svg width="32" height="32" viewBox="0 0 32 32" fill="none" xmlns="http://www.w3.org/2000/svg">
<g clip-path="url(#clip0_947_2395)">
<rect width="32" height="32" rx="7.03297" fill="#007EBB"/>
<path d="M29.0572 0H2.9428C1.31754 0 0 1.31754 0 2.9428V29.0572C0 30.6825 1.31754 32 2.9428 32H29.0572C30.6825 32 32 30.6825 32 29.0572V2.9428C32 1.31754 30.6825 0 29.0572 0Z" fill="black"/>
<path fill-rule="evenodd" clip-rule="evenodd" d="M17.7161 5.16125L17.7077 9.95821L17.6992 14.7552L17.3046 13.6416C17.3044 13.6412 17.3039 13.6398 17.3038 13.6394L16.7938 24.3187C17.2952 25.7347 17.5639 26.4906 17.5669 26.4936C17.5708 26.4976 17.8566 26.5148 18.2019 26.532C19.2481 26.5839 20.5445 26.6951 21.528 26.8173C21.7557 26.8456 21.9517 26.8601 21.9635 26.8495C21.9753 26.839 21.9817 21.9548 21.9778 15.9958L21.9706 5.16125H17.7161ZM10.021 5.14697V15.9925C10.021 21.9575 10.0268 26.8439 10.034 26.851C10.0411 26.8582 10.4105 26.8233 10.8549 26.7735C11.2992 26.7237 11.9134 26.6619 12.2196 26.636C12.6893 26.5964 14.0916 26.5062 14.2539 26.5052C14.3012 26.5049 14.3042 26.2612 14.311 21.9115L14.3183 17.3181L14.6576 18.2781C14.71 18.4265 14.7265 18.4728 14.7775 18.6173L15.2874 7.94065C15.1794 7.63522 15.236 7.79555 15.1122 7.44552C14.6956 6.26769 14.3421 5.26868 14.3266 5.22549L14.2984 5.14697H10.021Z" fill="#B1060F" stroke="black" stroke-width="0.0228427"/>
<path fill-rule="evenodd" clip-rule="evenodd" d="M10.021 5.14697V11.2349L14.3096 22.6111C14.3101 22.3504 14.3106 22.2095 14.3111 21.9115L14.3183 17.3181L14.6576 18.2781C16.5462 23.6223 17.5609 26.4877 17.5669 26.4936C17.5708 26.4976 17.8566 26.5148 18.2019 26.532C19.2481 26.5839 20.5445 26.6951 21.528 26.8173C21.7557 26.8456 21.9517 26.8601 21.9635 26.8495C21.9716 26.8423 21.9769 24.4474 21.9783 21.069L17.7097 8.7969L17.7077 9.95821L17.6992 14.7552L17.3046 13.6416C16.9189 12.5535 16.6615 11.8258 15.1122 7.44552C14.6956 6.26769 14.3421 5.26868 14.3266 5.22549L14.2984 5.14697H10.021Z" fill="url(#paint0_radial_947_2395)"/>
<path fill-rule="evenodd" clip-rule="evenodd" d="M10.0212 5.14697L14.3184 17.3236V17.3181L14.6577 18.2781C16.5464 23.6223 17.5611 26.4877 17.567 26.4936C17.571 26.4976 17.8567 26.5148 18.202 26.532C19.2482 26.5839 20.5447 26.6951 21.5282 26.8173C21.7547 26.8455 21.9497 26.8599 21.9633 26.8497L17.6994 14.7529V14.7552L17.3047 13.6416C16.9191 12.5535 16.6616 11.8258 15.1123 7.44552C14.6958 6.26769 14.3423 5.26868 14.3268 5.22549L14.2986 5.14697L10.0212 5.14697Z" fill="#E50914"/>
<path fill-rule="evenodd" clip-rule="evenodd" d="M17.7161 5.16125L17.7077 9.95821L17.6992 14.7552L17.3046 13.6416C17.3044 13.6412 17.3039 13.6398 17.3038 13.6394L16.7938 24.3187C17.2952 25.7347 17.5639 26.4906 17.5669 26.4936C17.5708 26.4976 17.8566 26.5148 18.2019 26.532C19.2481 26.5839 20.5445 26.6951 21.528 26.8173C21.7557 26.8456 21.9517 26.8601 21.9635 26.8495C21.9753 26.839 21.9817 21.9548 21.9778 15.9958L21.9706 5.16125H17.7161ZM10.021 5.14697V15.9925C10.021 21.9575 10.0268 26.8439 10.034 26.851C10.0411 26.8582 10.4105 26.8233 10.8549 26.7735C11.2992 26.7237 11.9134 26.6619 12.2196 26.636C12.6893 26.5964 14.0916 26.5062 14.2539 26.5052C14.3012 26.5049 14.3042 26.2612 14.311 21.9115L14.3183 17.3181L14.6576 18.2781C14.71 18.4265 14.7265 18.4728 14.7775 18.6173L15.2874 7.94065C15.1794 7.63522 15.236 7.79555 15.1122 7.44552C14.6956 6.26769 14.3421 5.26868 14.3266 5.22549L14.2984 5.14697H10.021Z" fill="#B1060F" stroke="black" stroke-width="0.0228427"/>
<path fill-rule="evenodd" clip-rule="evenodd" d="M10.021 5.14697V11.2349L14.3096 22.6111C14.3101 22.3504 14.3106 22.2095 14.3111 21.9115L14.3183 17.3181L14.6576 18.2781C16.5462 23.6223 17.5609 26.4877 17.5669 26.4936C17.5708 26.4976 17.8566 26.5148 18.2019 26.532C19.2481 26.5839 20.5445 26.6951 21.528 26.8173C21.7557 26.8456 21.9517 26.8601 21.9635 26.8495C21.9716 26.8423 21.9769 24.4474 21.9783 21.069L17.7097 8.7969L17.7077 9.95821L17.6992 14.7552L17.3046 13.6416C16.9189 12.5535 16.6615 11.8258 15.1122 7.44552C14.6956 6.26769 14.3421 5.26868 14.3266 5.22549L14.2984 5.14697H10.021Z" fill="url(#paint1_radial_947_2395)"/>
<path fill-rule="evenodd" clip-rule="evenodd" d="M10.0212 5.14697L14.3184 17.3236V17.3181L14.6577 18.2781C16.5464 23.6223 17.5611 26.4877 17.567 26.4936C17.571 26.4976 17.8567 26.5148 18.202 26.532C19.2482 26.5839 20.5447 26.6951 21.5282 26.8173C21.7547 26.8455 21.9497 26.8599 21.9633 26.8497L17.6994 14.7529V14.7552L17.3047 13.6416C16.9191 12.5535 16.6616 11.8258 15.1123 7.44552C14.6958 6.26769 14.3423 5.26868 14.3268 5.22549L14.2986 5.14697L10.0212 5.14697Z" fill="#E50914"/>
</g>
<defs>
<radialGradient id="paint0_radial_947_2395" cx="0" cy="0" r="1" gradientUnits="userSpaceOnUse" gradientTransform="translate(15.8011 15.8738) rotate(-19.0977) scale(2.71019 99.2717)">
<stop/>
<stop offset="1" stop-opacity="0"/>
</radialGradient>
<radialGradient id="paint1_radial_947_2395" cx="0" cy="0" r="1" gradientUnits="userSpaceOnUse" gradientTransform="translate(15.8011 15.8738) rotate(-19.0977) scale(2.71019 99.2717)">
<stop/>
<stop offset="1" stop-opacity="0"/>
</radialGradient>
<clipPath id="clip0_947_2395">
<rect width="32" height="32" rx="7.03297" fill="white"/>
</clipPath>
</defs>
</svg>
