<svg width="19" height="20" viewBox="0 0 19 20" fill="none" xmlns="http://www.w3.org/2000/svg">
<path d="M14.6489 3.7771L10.3187 2.15525C9.86994 1.98992 9.13775 1.98992 8.68898 2.15525L4.3588 3.7771C3.52425 4.09202 2.84717 5.06828 2.84717 5.95794V12.3351C2.84717 12.9728 3.26444 13.8153 3.77619 14.1932L8.10637 17.429C8.87006 18.0037 10.1219 18.0037 10.8856 17.429L15.2157 14.1932C15.7275 13.8074 16.1448 12.9728 16.1448 12.3351V5.95794C16.1526 5.06828 15.4756 4.09202 14.6489 3.7771ZM12.2397 8.18602L8.85432 11.5714C8.73622 11.6895 8.58663 11.7446 8.43704 11.7446C8.28745 11.7446 8.13787 11.6895 8.01977 11.5714L6.76008 10.296C6.53176 10.0677 6.53176 9.68977 6.76008 9.46145C6.9884 9.23313 7.36631 9.23313 7.59462 9.46145L8.44492 10.3117L11.4131 7.3436C11.6414 7.11528 12.0193 7.11528 12.2476 7.3436C12.4759 7.57192 12.4759 7.9577 12.2397 8.18602Z" fill="#00CF00"/>
</svg>
