<svg width="32" height="32" viewBox="0 0 32 32" fill="none" xmlns="http://www.w3.org/2000/svg">
<rect width="32" height="32" rx="7.03297" fill="#F7F7F7"/>
<path d="M6 16H26M6 16C6 21.5228 10.4772 26 16 26M6 16C6 10.4772 10.4772 6 16 6M26 16C26 21.5228 21.5228 26 16 26M26 16C26 10.4772 21.5228 6 16 6M16 6C18.5013 8.73835 19.9228 12.292 20 16C19.9228 19.708 18.5013 23.2616 16 26M16 6C13.4987 8.73835 12.0772 12.292 12 16C12.0772 19.708 13.4987 23.2616 16 26" stroke="#1B539A" stroke-width="1.5" stroke-linecap="round" stroke-linejoin="round"/>
</svg>
